# xmcd
#
# Track frame offsets:
#	150
#	17877
#	34261
#	46853
#	67039
#	86119
#	105496
#	123591
#	136073
#	146967
#	166310
#	190813
#
# Disc length: 2782 seconds
# Revision: 0
# Processed by: cddbd v1.5.2PL0 Copyright (c) Steve Scherf et al.
# Submitted via: dBpowerAMP V12.0
#
DISCID=aa0adc0c
DTITLE=Ashleigh Flynn - A Million Stars
DYEAR=2013
DGENRE=Country\\Americana
TTITLE0=FCC - The Devil Called Your Name
TTITLE1=Dirty Hands and Dirty Feet
TTITLE2=Prohibition Rose
TTITLE3=A Million Stars
TTITLE4=How the West Was Won
TTITLE5=Runnin'
TTITLE6=FCC - See That Light
TTITLE7=New Angel in Heaven
TTITLE8=Prove It On Me
TTITLE9=Rainy Days
TTITLE10=A Little Low
TTITLE11=Walk Awhile
EXTD=
EXTT0=
EXTT1=
EXTT2=
EXTT3=
EXTT4=
EXTT5=
EXTT6=
EXTT7=
EXTT8=
EXTT9=
EXTT10=
EXTT11=
PLAYORDER=
